<svg width="200" height="61" viewBox="0 0 200 61" fill="none" xmlns="http://www.w3.org/2000/svg">
<path d="M114.365 52.9909C113.492 52.9909 112.777 53.3801 112.335 54.0217V50.9609H111.441V58.6496H112.272V57.6399C112.714 58.3446 113.44 58.7653 114.344 58.7653C115.922 58.7653 117.079 57.5347 117.079 55.8729C117.079 54.2321 115.943 52.9909 114.365 52.9909ZM114.25 57.9765C113.103 57.9765 112.293 57.114 112.293 55.8729C112.293 54.6423 113.093 53.7798 114.25 53.7798C115.354 53.7798 116.185 54.6843 116.185 55.8729C116.185 57.0824 115.365 57.9765 114.25 57.9765Z" fill="white"/>
<path d="M122.031 53.1066L120.159 57.8923L118.371 53.1066H117.435L119.602 58.6496H119.844L119.055 60.5324H119.938L122.967 53.1066H122.031Z" fill="white"/>
<path d="M165.94 58.7559H166.745C166.894 58.7559 167.014 58.6357 167.014 58.4875V57.6825C167.014 57.5343 166.894 57.4141 166.745 57.4141H165.94C165.792 57.4141 165.672 57.5343 165.672 57.6825V58.4875C165.672 58.6357 165.792 58.7559 165.94 58.7559Z" fill="white"/>
<path d="M129.055 58.7558C129.977 58.7558 130.734 58.3898 131.251 57.7841C131.365 57.6453 131.34 57.5191 131.175 57.3929L130.519 56.9007C130.368 56.7871 130.242 56.7998 130.09 56.9259C129.876 57.1026 129.573 57.2541 129.093 57.2541C128.222 57.2541 127.629 56.6105 127.629 55.7397C127.629 54.869 128.222 54.2254 129.093 54.2254C129.56 54.2254 129.876 54.3895 130.09 54.5787C130.242 54.7049 130.368 54.7175 130.519 54.604L131.175 54.0992C131.327 53.973 131.352 53.8216 131.226 53.6702C130.721 53.0897 129.964 52.7363 129.055 52.7363C127.301 52.7363 126.09 53.9856 126.09 55.7397C126.09 57.4939 127.301 58.7558 129.055 58.7558Z" fill="white"/>
<path d="M134.292 58.7432C135.024 58.7432 135.567 58.4783 135.958 58.0366V58.3394C135.958 58.5287 136.071 58.6423 136.261 58.6423H137.232C137.422 58.6423 137.535 58.5287 137.535 58.3394V53.1402C137.535 52.9509 137.422 52.8374 137.232 52.8374H136.261C136.071 52.8374 135.958 52.9509 135.958 53.1402V53.4558C135.567 53.0141 135.024 52.749 134.292 52.749C132.702 52.749 131.541 53.9857 131.541 55.7398C131.541 57.4687 132.702 58.7432 134.292 58.7432ZM134.519 57.2542C133.648 57.2542 133.068 56.6106 133.068 55.7398C133.068 54.8691 133.648 54.2255 134.519 54.2255C135.39 54.2255 135.958 54.8691 135.958 55.7398C135.958 56.6106 135.39 57.2542 134.519 57.2542Z" fill="white"/>
<path d="M138.551 58.6418H139.523C139.712 58.6418 139.825 58.5283 139.825 58.339V55.9791C139.825 54.6968 140.513 54.2377 141.58 54.2377C141.769 54.225 141.87 54.1241 141.87 53.9348V53.0641C141.87 52.8621 141.769 52.8369 141.58 52.8369C139.985 52.8369 138.248 53.3885 138.248 55.6471V58.339C138.248 58.5283 138.362 58.6418 138.551 58.6418Z" fill="white"/>
<path d="M144.723 58.7428C145.291 58.7428 145.896 58.5787 146.338 58.1118V58.3768C146.338 58.5409 146.452 58.6418 146.641 58.6418H147.613C147.802 58.6418 147.915 58.5283 147.915 58.339V53.1398C147.915 52.9505 147.802 52.8369 147.613 52.8369H146.641C146.452 52.8369 146.338 52.9505 146.338 53.1398V56.1432C146.338 57.1654 145.657 57.4051 145.202 57.4051C144.748 57.4051 144.029 57.1654 144.029 56.1432V53.1398C144.029 52.9505 143.915 52.8369 143.726 52.8369H142.754C142.565 52.8369 142.451 52.9505 142.451 53.1398V56.3956C142.451 58.1749 143.676 58.7428 144.723 58.7428Z" fill="white"/>
<path d="M149.103 58.6423H150.075C150.265 58.6423 150.378 58.5287 150.378 58.3394V55.3107C150.378 54.3012 151.059 54.1245 151.425 54.1245C151.792 54.1245 152.498 54.3012 152.498 55.3107V58.3394C152.498 58.5287 152.612 58.6423 152.801 58.6423H153.773C153.962 58.6423 154.076 58.5287 154.076 58.3394V55.3107C154.076 54.3012 154.77 54.1245 155.123 54.1245C155.489 54.1245 156.208 54.3012 156.208 55.3107V58.3394C156.208 58.5287 156.322 58.6423 156.511 58.6423H157.483C157.672 58.6423 157.786 58.5287 157.786 58.3394V55.0962C157.786 53.2791 156.637 52.749 155.615 52.749C154.971 52.749 154.202 52.9636 153.71 53.6324C153.293 52.9762 152.587 52.749 151.918 52.749C151.388 52.749 150.807 52.9509 150.378 53.4179V53.1276C150.378 52.9383 150.265 52.8374 150.075 52.8374H149.103C148.914 52.8374 148.801 52.9509 148.801 53.1402V58.3394C148.801 58.5287 148.914 58.6423 149.103 58.6423Z" fill="white"/>
<path d="M161.126 58.7432C161.859 58.7432 162.401 58.4783 162.792 58.0366V58.3394C162.792 58.5287 162.906 58.6423 163.095 58.6423H164.067C164.256 58.6423 164.37 58.5287 164.37 58.3394V53.1402C164.37 52.9509 164.256 52.8374 164.067 52.8374H163.095C162.906 52.8374 162.792 52.9509 162.792 53.1402V53.4558C162.401 53.0141 161.859 52.749 161.126 52.749C159.536 52.749 158.375 53.9857 158.375 55.7398C158.375 57.4687 159.536 58.7432 161.126 58.7432ZM161.353 57.2542C160.483 57.2542 159.903 56.6106 159.903 55.7398C159.903 54.8691 160.483 54.2255 161.353 54.2255C162.224 54.2255 162.792 54.8691 162.792 55.7398C162.792 56.6106 162.224 57.2542 161.353 57.2542Z" fill="white"/>
<path d="M14.4352 34.7349L9.93418 43.2304C5.96872 41.1185 2.99517 37.5211 1.66049 33.2211C0.325823 28.921 0.73804 24.2662 2.80746 20.2695L7.05841 22.4904L11.3094 24.7113C10.9162 25.4713 10.6582 26.2943 10.547 27.1433C10.503 27.4753 10.481 27.8098 10.4811 28.1447C10.4803 29.5 10.8481 30.8299 11.5449 31.9912C12.2416 33.1524 13.2409 34.101 14.4352 34.7349Z" fill="#E7BF7A"/>
<path d="M34.9381 28.1454C34.9412 31.2471 34.1009 34.291 32.5075 36.9492C30.9142 39.6074 28.6281 41.7794 25.8956 43.2312L21.3945 34.7356C22.5886 34.1016 23.5876 33.1528 24.2841 31.9916C24.9806 30.8304 25.3481 29.5006 25.3472 28.1454C25.3474 27.8105 25.3253 27.476 25.2813 27.144C25.1688 26.2948 24.9094 25.4718 24.5147 24.712L33.0216 20.2695C33.9311 22.0195 34.5289 23.9155 34.7879 25.8719C34.888 26.6256 34.9382 27.3851 34.9381 28.1454Z" fill="#59C9EB"/>
<path d="M33.0225 20.2698L24.5149 24.7109C24.087 23.8878 23.5104 23.1516 22.8145 22.5397C21.4592 21.3477 19.7181 20.6905 17.9156 20.6905C16.1131 20.6905 14.3721 21.3477 13.0167 22.5397C12.321 23.1518 11.7445 23.8879 11.3164 24.7109L7.06541 22.4907L2.81445 20.2698C4.25343 17.498 6.42271 15.1753 9.08625 13.5543C11.7498 11.9333 14.8055 11.0762 17.9209 11.0762C21.0364 11.0762 24.0921 11.9333 26.7556 13.5543C29.4192 15.1753 31.5885 17.498 33.0274 20.2698H33.0225Z" fill="#60A8AA"/>
<path d="M56.485 11.5166C52.7458 11.5166 49.7077 12.802 47.6044 14.73V12.2761H38.4316V43.0662H48.1886V25.0712C48.1886 22.2668 50.5841 20.1635 53.5053 20.1635C56.4266 20.1635 58.7051 22.0915 58.7051 25.4218V43.0662H68.4621V23.4938C68.4621 16.4243 63.7297 11.5166 56.485 11.5166Z" fill="white"/>
<path d="M81.8689 30.5632H104.187C104.304 29.7452 104.421 28.5767 104.421 27.0577C104.421 19.4624 98.4616 11.5166 88.4125 11.5166C79.5319 11.5166 72.404 18.8197 72.404 27.7004C72.404 36.8731 78.8308 43.8257 88.9967 43.8257C96.6504 43.8257 100.506 40.7292 102.96 37.5158L95.6572 32.6665C94.4303 34.7114 92.7359 35.8799 89.2888 35.8799C85.6081 35.8799 82.8621 34.0103 81.8689 30.5632ZM81.752 24.487C82.57 20.7478 85.0822 18.8197 88.6462 18.8197C92.2101 18.8197 94.5471 20.9815 95.3651 24.487H81.752Z" fill="white"/>
<path d="M136.422 43.0662L121.816 26.4734L136.071 12.2761H129.002L115.739 25.0128V0.357422H109.546V43.0662H115.739V28.1678L129.528 43.0662H136.422Z" fill="white"/>
<path d="M141.652 29.7452H166.483C166.541 29.161 166.599 28.0509 166.599 26.9993C166.599 19.0534 160.698 11.575 151.175 11.575C142.47 11.575 135.517 18.7613 135.517 27.7004C135.517 36.8731 141.944 43.7673 151.643 43.7673C159.004 43.7673 163.152 40.6707 165.489 36.581L160.406 33.3676C159.004 36.581 156.433 38.2753 151.818 38.2753C146.618 38.2753 142.587 35.0035 141.652 29.7452ZM141.71 25.0128C142.645 19.6961 146.618 16.5996 151.409 16.5996C156.141 16.5996 159.705 19.813 160.523 25.0128H141.71Z" fill="white"/>
<path d="M192.897 12.2761L183.315 37.9832L174.376 12.2761H168.008L179.459 43.0662H181.212L177.005 53.5242H183.081L187.171 43.0662L199.323 12.2761H192.897Z" fill="white"/>
</svg>
