<svg width="199" height="61" viewBox="0 0 199 61" fill="none" xmlns="http://www.w3.org/2000/svg">
<path d="M113.465 53.3737C112.592 53.3737 111.877 53.7629 111.435 54.4045V51.3438H110.541V59.0324H111.372V58.0227C111.814 58.7274 112.539 59.1481 113.444 59.1481C115.022 59.1481 116.179 57.9175 116.179 56.2557C116.179 54.6149 115.043 53.3737 113.465 53.3737ZM113.349 58.3593C112.203 58.3593 111.393 57.4968 111.393 56.2557C111.393 55.0251 112.192 54.1626 113.349 54.1626C114.454 54.1626 115.285 55.0671 115.285 56.2557C115.285 57.4653 114.464 58.3593 113.349 58.3593Z" fill="#333333"/>
<path d="M121.131 53.4894L119.259 58.2751L117.471 53.4894H116.535L118.701 59.0324H118.943L118.154 60.9152H119.038L122.067 53.4894H121.131Z" fill="#333333"/>
<path d="M165.04 59.1387H165.845C165.993 59.1387 166.113 59.0185 166.113 58.8703V58.0653C166.113 57.9171 165.993 57.797 165.845 57.797H165.04C164.892 57.797 164.772 57.9171 164.772 58.0653V58.8703C164.772 59.0185 164.892 59.1387 165.04 59.1387Z" fill="#333333"/>
<path d="M128.155 59.1386C129.076 59.1386 129.833 58.7726 130.351 58.1669C130.464 58.0281 130.439 57.9019 130.275 57.7757L129.619 57.2836C129.467 57.1699 129.341 57.1826 129.19 57.3088C128.975 57.4855 128.672 57.6369 128.193 57.6369C127.322 57.6369 126.729 56.9933 126.729 56.1225C126.729 55.2518 127.322 54.6082 128.193 54.6082C128.66 54.6082 128.975 54.7723 129.19 54.9615C129.341 55.0878 129.467 55.1004 129.619 54.9868L130.275 54.4821C130.426 54.3558 130.452 54.2044 130.326 54.053C129.821 53.4725 129.064 53.1191 128.155 53.1191C126.401 53.1191 125.189 54.3684 125.189 56.1225C125.189 57.8767 126.401 59.1386 128.155 59.1386Z" fill="#333333"/>
<path d="M133.392 59.126C134.124 59.126 134.666 58.8611 135.057 58.4194V58.7222C135.057 58.9115 135.171 59.0251 135.36 59.0251H136.332C136.521 59.0251 136.635 58.9115 136.635 58.7222V53.523C136.635 53.3337 136.521 53.2202 136.332 53.2202H135.36C135.171 53.2202 135.057 53.3337 135.057 53.523V53.8386C134.666 53.3969 134.124 53.1318 133.392 53.1318C131.802 53.1318 130.641 54.3685 130.641 56.1226C130.641 57.8515 131.802 59.126 133.392 59.126ZM133.619 57.637C132.748 57.637 132.168 56.9934 132.168 56.1226C132.168 55.2519 132.748 54.6083 133.619 54.6083C134.49 54.6083 135.057 55.2519 135.057 56.1226C135.057 56.9934 134.49 57.637 133.619 57.637Z" fill="#333333"/>
<path d="M137.651 59.0246H138.622C138.811 59.0246 138.925 58.9111 138.925 58.7218V56.362C138.925 55.0796 139.613 54.6205 140.679 54.6205C140.868 54.6078 140.97 54.5069 140.97 54.3176V53.4469C140.97 53.2449 140.868 53.2197 140.679 53.2197C139.085 53.2197 137.348 53.7713 137.348 56.0299V58.7218C137.348 58.9111 137.461 59.0246 137.651 59.0246Z" fill="#333333"/>
<path d="M143.823 59.1256C144.39 59.1256 144.996 58.9616 145.438 58.4946V58.7597C145.438 58.9237 145.552 59.0246 145.741 59.0246H146.712C146.901 59.0246 147.015 58.9111 147.015 58.7218V53.5226C147.015 53.3333 146.901 53.2197 146.712 53.2197H145.741C145.552 53.2197 145.438 53.3333 145.438 53.5226V56.526C145.438 57.5482 144.756 57.7879 144.302 57.7879C143.848 57.7879 143.129 57.5482 143.129 56.526V53.5226C143.129 53.3333 143.015 53.2197 142.826 53.2197H141.854C141.665 53.2197 141.551 53.3333 141.551 53.5226V56.7784C141.551 58.5578 142.775 59.1256 143.823 59.1256Z" fill="#333333"/>
<path d="M148.203 59.0251H149.175C149.364 59.0251 149.478 58.9115 149.478 58.7222V55.6936C149.478 54.684 150.159 54.5073 150.525 54.5073C150.891 54.5073 151.597 54.684 151.597 55.6936V58.7222C151.597 58.9115 151.712 59.0251 151.901 59.0251H152.872C153.061 59.0251 153.175 58.9115 153.175 58.7222V55.6936C153.175 54.684 153.869 54.5073 154.223 54.5073C154.588 54.5073 155.308 54.684 155.308 55.6936V58.7222C155.308 58.9115 155.421 59.0251 155.611 59.0251H156.583C156.772 59.0251 156.885 58.9115 156.885 58.7222V55.4791C156.885 53.6619 155.737 53.1318 154.715 53.1318C154.071 53.1318 153.301 53.3464 152.809 54.0152C152.393 53.359 151.686 53.1318 151.017 53.1318C150.487 53.1318 149.907 53.3337 149.478 53.8007V53.5104C149.478 53.3211 149.364 53.2202 149.175 53.2202H148.203C148.014 53.2202 147.9 53.3337 147.9 53.523V58.7222C147.9 58.9115 148.014 59.0251 148.203 59.0251Z" fill="#333333"/>
<path d="M160.226 59.126C160.958 59.126 161.501 58.8611 161.891 58.4194V58.7222C161.891 58.9115 162.006 59.0251 162.195 59.0251H163.166C163.355 59.0251 163.469 58.9115 163.469 58.7222V53.523C163.469 53.3337 163.355 53.2202 163.166 53.2202H162.195C162.006 53.2202 161.891 53.3337 161.891 53.523V53.8386C161.501 53.3969 160.958 53.1318 160.226 53.1318C158.636 53.1318 157.475 54.3685 157.475 56.1226C157.475 57.8515 158.636 59.126 160.226 59.126ZM160.453 57.637C159.583 57.637 159.002 56.9934 159.002 56.1226C159.002 55.2519 159.583 54.6083 160.453 54.6083C161.324 54.6083 161.891 55.2519 161.891 56.1226C161.891 56.9934 161.324 57.637 160.453 57.637Z" fill="#333333"/>
<path d="M13.5348 35.1177L9.03379 43.6132C5.06833 41.5013 2.09477 37.9039 0.760104 33.6039C-0.574567 29.3038 -0.16235 24.6491 1.90707 20.6523L6.15802 22.8732L10.409 25.0941C10.0158 25.8541 9.75778 26.6771 9.64664 27.5261C9.60262 27.8581 9.5806 28.1926 9.58074 28.5275C9.57995 29.8828 9.94773 31.2127 10.6445 32.374C11.3412 33.5352 12.3405 34.4838 13.5348 35.1177Z" fill="#E7BF7A"/>
<path d="M34.0377 28.5282C34.0408 31.6299 33.2005 34.6738 31.6071 37.332C30.0138 39.9903 27.7277 42.1622 24.9952 43.614L20.4941 35.1184C21.6882 34.4844 22.6872 33.5357 23.3837 32.3744C24.0802 31.2132 24.4478 29.8834 24.4468 28.5282C24.447 28.1933 24.4249 27.8588 24.3809 27.5268C24.2685 26.6776 24.009 25.8546 23.6143 25.0949L32.1212 20.6523C33.0307 22.4024 33.6285 24.2983 33.8875 26.2547C33.9876 27.0084 34.0378 27.7679 34.0377 28.5282Z" fill="#59C9EB"/>
<path d="M32.1221 20.6516L23.6145 25.0927C23.1866 24.2696 22.61 23.5334 21.9141 22.9216C20.5588 21.7295 18.8177 21.0723 17.0152 21.0723C15.2127 21.0723 13.4717 21.7295 12.1164 22.9216C11.4206 23.5336 10.8441 24.2698 10.416 25.0927L6.16502 22.8725L1.91406 20.6516C3.35304 17.8799 5.52232 15.5571 8.18586 13.9361C10.8494 12.3151 13.9051 11.458 17.0206 11.458C20.136 11.458 23.1917 12.3151 25.8552 13.9361C28.5188 15.5571 30.6881 17.8799 32.127 20.6516H32.1221Z" fill="#60A8AA"/>
<path d="M55.5846 11.8984C51.8454 11.8984 48.8073 13.1838 46.704 15.1118V12.658H37.5312V43.448H47.2882V25.4531C47.2882 22.6487 49.6837 20.5454 52.6049 20.5454C55.5262 20.5454 57.8048 22.4734 57.8048 25.8036V43.448H67.5617V23.8756C67.5617 16.8062 62.8293 11.8984 55.5846 11.8984Z" fill="#333333"/>
<path d="M80.9685 30.945H103.287C103.404 30.1271 103.521 28.9586 103.521 27.4395C103.521 19.8443 97.5612 11.8984 87.5121 11.8984C78.6315 11.8984 71.5036 19.2016 71.5036 28.0822C71.5036 37.2549 77.9304 44.2075 88.0963 44.2075C95.75 44.2075 99.6061 41.111 102.06 37.8976L94.7568 33.0483C93.5299 35.0932 91.8355 36.2617 88.3885 36.2617C84.7077 36.2617 81.9617 34.3921 80.9685 30.945ZM80.8516 24.8688C81.6696 21.1296 84.1819 19.2016 87.7458 19.2016C91.3097 19.2016 93.6467 21.3633 94.4647 24.8688H80.8516Z" fill="#333333"/>
<path d="M135.522 43.448L120.915 26.8553L135.171 12.658H128.102L114.839 25.3946V0.739258H108.646V43.448H114.839V28.5496L128.627 43.448H135.522Z" fill="#333333"/>
<path d="M140.751 30.1271H165.582C165.641 29.5428 165.699 28.4327 165.699 27.3811C165.699 19.4353 159.798 11.9569 150.275 11.9569C141.569 11.9569 134.617 19.1432 134.617 28.0822C134.617 37.2549 141.044 44.1491 150.742 44.1491C158.104 44.1491 162.252 41.0526 164.589 36.9628L159.506 33.7494C158.104 36.9628 155.533 38.6571 150.917 38.6571C145.718 38.6571 141.686 35.3853 140.751 30.1271ZM140.81 25.3946C141.745 20.078 145.718 16.9814 150.508 16.9814C155.241 16.9814 158.805 20.1948 159.623 25.3946H140.81Z" fill="#333333"/>
<path d="M191.996 12.658L182.414 38.365L173.475 12.658H167.107L178.558 43.448H180.311L176.105 53.9061H182.181L186.271 43.448L198.423 12.658H191.996Z" fill="#333333"/>
</svg>
