<svg width="132" height="132" viewBox="0 0 132 132" fill="none" xmlns="http://www.w3.org/2000/svg">
<path d="M69.0096 40.3652L68.3156 71.9063H63.5214L62.8275 40.3652H69.0096ZM66.1709 84.712C65.0774 84.712 64.1522 84.3335 63.3952 83.5765C62.6383 82.8195 62.2598 81.8943 62.2598 80.8009C62.2598 79.7075 62.6383 78.7823 63.3952 78.0253C64.1522 77.2683 65.0774 76.8898 66.1709 76.8898C67.2222 76.8898 68.1054 77.2683 68.8203 78.0253C69.5773 78.7823 69.9558 79.7075 69.9558 80.8009C69.9558 81.8943 69.5773 82.8195 68.8203 83.5765C68.1054 84.3335 67.2222 84.712 66.1709 84.712Z" fill="#F99677"/>
<path d="M70.6709 12.0518C68.6403 8.53474 63.5638 8.53473 61.5332 12.0518L17.2061 88.8291C15.1757 92.346 17.7136 96.7419 21.7744 96.7422H110.43C114.491 96.7422 117.029 92.3461 114.998 88.8291L70.6709 12.0518Z" stroke="#F99677" stroke-width="3.44894"/>
</svg>
