<svg width="35" height="41" viewBox="0 0 35 41" fill="none" xmlns="http://www.w3.org/2000/svg">
<path d="M1.4049 16.2485C1.1801 16.2505 0.95877 16.193 0.763379 16.0819C0.620064 16.0013 0.494255 15.893 0.393311 15.7632C0.292368 15.6334 0.218318 15.4849 0.175494 15.3261C0.13267 15.1674 0.121932 15.0017 0.143909 14.8388C0.165886 14.6759 0.220136 14.519 0.303485 14.3773C1.90978 11.6962 6.79699 5.43848 17.4612 5.43848C22.0826 5.43848 26.1359 6.65236 29.5026 9.04515C32.2736 11.0089 33.8266 13.2317 34.5664 14.3023C34.6603 14.4372 34.7262 14.5896 34.7602 14.7504C34.7943 14.9112 34.7958 15.0771 34.7648 15.2385C34.7337 15.3999 34.6707 15.5535 34.5794 15.6902C34.4881 15.8268 34.3704 15.9439 34.2332 16.0344C33.9528 16.2197 33.6112 16.2886 33.2808 16.2264C32.9505 16.1642 32.6574 15.9758 32.4636 15.7011C31.1247 13.7757 27.0423 7.91707 17.4612 7.91707C8.10919 7.91707 3.88099 13.3083 2.50381 15.6203C2.39316 15.8134 2.23296 15.9734 2.03977 16.0838C1.84658 16.1943 1.62741 16.2511 1.4049 16.2485Z" fill="#858FAB"/>
<path d="M22.834 40.7432C22.7276 40.7445 22.6216 40.7325 22.5182 40.7074C14.7825 38.7912 11.894 31.058 11.7765 30.7364L11.7582 30.6655C11.6949 30.4423 10.1427 25.1393 12.5255 22.0334C13.6178 20.617 15.279 19.8905 17.4727 19.8905C19.5122 19.8905 20.9836 20.5245 21.995 21.8367C22.8281 22.9082 23.1614 24.2295 23.4838 25.5026C24.1612 28.1536 24.6502 29.5458 27.4654 29.6891C28.7018 29.7516 29.5141 29.0284 29.9748 28.4127C31.2204 26.7339 31.437 23.9971 30.498 21.581C29.2917 18.4625 25.0101 12.583 17.461 12.583C14.2385 12.583 11.2775 13.6186 8.90301 15.5648C6.93763 17.177 5.38049 19.4531 4.63066 21.7926C3.24015 26.1482 5.0639 32.995 5.08139 33.0575C5.12397 33.2168 5.13422 33.3831 5.11153 33.5465C5.08883 33.7098 5.03365 33.867 4.94925 34.0087C4.86485 34.1504 4.75292 34.2738 4.62008 34.3716C4.48724 34.4693 4.33616 34.5395 4.17577 34.578C3.85173 34.6641 3.50683 34.62 3.21498 34.4549C2.92313 34.2898 2.70756 34.017 2.61446 33.6948C2.53115 33.3824 0.58326 26.0799 2.18956 21.0461C3.93915 15.5915 9.33875 10.0928 17.4635 10.0928C21.2185 10.0928 24.766 11.3691 27.727 13.7794C30.0198 15.654 31.8927 18.1717 32.8725 20.6887C34.118 23.9021 33.784 27.5088 32.0235 29.8649C30.8505 31.4362 29.18 32.2577 27.3296 32.1685C22.5091 31.9269 21.6426 28.5619 21.0111 26.1074C20.3612 23.5897 19.9455 22.3758 17.4635 22.3758C16.1005 22.3758 15.1432 22.7507 14.5475 23.5272C13.7352 24.5894 13.6719 26.2499 13.7619 27.4546C13.821 28.294 13.9633 29.1254 14.1868 29.9365C14.3851 30.4364 16.967 36.7683 23.1506 38.3005C23.3104 38.3383 23.4611 38.4076 23.5939 38.5042C23.7268 38.6008 23.8391 38.7228 23.9244 38.8632C24.0096 39.0036 24.0661 39.1595 24.0906 39.3219C24.1151 39.4843 24.1071 39.65 24.067 39.8093C23.9916 40.0782 23.8302 40.315 23.6076 40.4836C23.3849 40.6523 23.1133 40.7434 22.834 40.7432Z" fill="#858FAB"/>
<path d="M12.9044 40.1711C12.7311 40.1715 12.5594 40.1369 12.3996 40.0695C12.2399 40.0021 12.0954 39.9032 11.9747 39.7787C8.8787 36.5295 7.12744 32.8961 6.46842 28.353V28.3289C6.09851 25.3212 6.64005 21.063 9.29361 18.1354C11.2523 15.975 14.0059 14.877 17.4634 14.877C21.5525 14.877 24.7659 16.7782 26.7696 20.3665C28.2234 22.9734 28.5117 25.5712 28.5192 25.6778C28.5344 25.8422 28.5171 26.008 28.4681 26.1658C28.4192 26.3235 28.3397 26.47 28.234 26.5969C28.1284 26.7238 27.9987 26.8287 27.8525 26.9054C27.7063 26.9821 27.5464 27.0293 27.3819 27.0442C27.0501 27.0802 26.7174 26.9842 26.4557 26.7771C26.194 26.5699 26.0242 26.2681 25.9831 25.9369C25.7636 24.3782 25.2592 22.8732 24.4951 21.4971C22.9421 18.7569 20.5793 17.3639 17.4542 17.3639C14.7548 17.3639 12.6428 18.1762 11.1898 19.78C9.09532 22.092 8.69041 25.6536 8.97784 28.0098C9.55521 32.0272 11.099 35.2231 13.8251 38.0791C13.9388 38.1975 14.0277 38.3375 14.0862 38.4909C14.1448 38.6443 14.172 38.8078 14.166 38.9719C14.1601 39.136 14.1213 39.2972 14.0518 39.446C13.9824 39.5947 13.8837 39.728 13.7617 39.8379C13.5268 40.0508 13.2215 40.1695 12.9044 40.1711Z" fill="#858FAB"/>
<path d="M27.1673 36.5925C24.4596 36.5925 22.1577 35.8427 20.3156 34.3522C16.6148 31.3704 16.1999 26.514 16.1815 26.3091C16.1555 25.9726 16.2641 25.6396 16.4835 25.3833C16.703 25.127 17.0153 24.9684 17.3517 24.9423C17.6881 24.9162 18.0211 25.0248 18.2774 25.2443C18.5337 25.4637 18.6924 25.776 18.7185 26.1124C18.7276 26.1841 19.0975 30.1565 21.9502 32.4443C23.6382 33.7923 25.8943 34.3272 28.6745 34.0148C29.0068 33.9745 29.3415 34.0674 29.6055 34.2731C29.8695 34.4789 30.0413 34.7808 30.0833 35.1129C30.1015 35.2769 30.0869 35.4429 30.0402 35.6012C29.9936 35.7595 29.9159 35.907 29.8117 36.0349C29.7074 36.1629 29.5787 36.2688 29.4331 36.3465C29.2875 36.4242 29.1279 36.4722 28.9636 36.4875C28.3674 36.5571 27.7676 36.5922 27.1673 36.5925Z" fill="#858FAB"/>
<path d="M29.3069 3.48382C28.2505 2.79648 24.5047 0.751953 17.4613 0.751953C10.068 0.751953 6.31306 3.0106 5.48242 3.58463C5.42756 3.61831 5.3762 3.65738 5.32912 3.70127C5.32415 3.70608 5.31768 3.70902 5.31079 3.70961C5.17815 3.82542 5.07171 3.96817 4.99859 4.12836C4.92546 4.28854 4.88733 4.46247 4.88672 4.63856C4.889 4.80362 4.92383 4.96661 4.98921 5.11819C5.05459 5.26976 5.14924 5.40695 5.26773 5.52188C5.38622 5.63681 5.52623 5.72723 5.67973 5.78796C5.83323 5.84869 5.99721 5.87853 6.16226 5.87577C6.42681 5.8756 6.68497 5.79448 6.90209 5.64333C6.93791 5.61667 10.1697 3.24221 17.4638 3.24221C24.758 3.24221 28.0072 5.60834 28.0422 5.62583C28.264 5.79032 28.5334 5.87806 28.8095 5.87577C28.9747 5.87831 29.1388 5.84819 29.2923 5.78716C29.4458 5.72612 29.5858 5.63537 29.7042 5.52011C29.8225 5.40484 29.917 5.26734 29.982 5.11549C30.0471 4.96364 30.0816 4.80043 30.0834 4.63523C30.0835 4.38777 30.0096 4.14594 29.8712 3.94078C29.7329 3.73562 29.5364 3.5765 29.3069 3.48382Z" fill="#858FAB"/>
</svg>
