<svg width="229" height="229" viewBox="0 0 229 229" fill="none" xmlns="http://www.w3.org/2000/svg">
<circle cx="114.505" cy="114.438" r="114.325" fill="#60A8AA"/>
<path d="M103.031 63.8502C103.031 69.373 107.508 73.8502 113.031 73.8502H115.98C121.503 73.8502 125.98 69.373 125.98 63.8502V63.6016C125.98 58.0787 121.503 53.6016 115.98 53.6016H113.031C107.508 53.6016 103.031 58.0787 103.031 63.6016V63.8502ZM103.031 167.624C103.031 173.147 107.508 177.624 113.031 177.624H115.98C121.503 177.624 125.98 173.147 125.98 167.624V96.5056C125.98 90.9827 121.503 86.5056 115.98 86.5056H113.031C107.508 86.5056 103.031 90.9827 103.031 96.5056V167.624Z" fill="white"/>
</svg>
