<svg width="21" height="22" viewBox="0 0 21 22" fill="none" xmlns="http://www.w3.org/2000/svg">
<path d="M10.5 0.871094C4.68072 0.871094 0 5.55182 0 11.3711C0 17.1904 4.68072 21.8711 10.5 21.8711C16.3193 21.8711 21 17.1904 21 11.3711C21 5.55182 16.3193 0.871094 10.5 0.871094ZM1.01205 11.3711C1.01205 6.05784 5.18675 1.88314 10.5 1.88314C12.9036 1.88314 15.1807 2.76868 16.8253 4.28676L10.5 10.6121L9.36145 9.4735C9.74096 8.96748 9.86747 8.20844 9.86747 7.57591C9.86747 6.94338 9.48795 6.31085 9.10843 5.80483C7.96988 4.79278 6.07229 4.79278 4.93373 5.93133C3.79518 7.06989 3.79518 8.96748 4.93373 9.97953C5.43976 10.4856 6.07229 10.7386 6.70482 10.7386C7.33735 10.7386 7.96988 10.6121 8.60241 10.2325L9.74096 11.3711L3.41566 17.6964C1.89759 16.0518 1.01205 13.7747 1.01205 11.3711ZM8.22289 9.22049C7.59036 9.85302 6.45181 9.97953 5.81928 9.22049C5.18675 8.58796 5.18675 7.44941 5.81928 6.81688C6.45181 6.18435 7.59036 6.05784 8.22289 6.81688C8.85542 7.3229 8.85542 8.46146 8.22289 9.22049ZM10.5 20.859C8.09639 20.859 5.81928 19.9735 4.1747 18.4554L10.3735 12.2566L11.259 11.3711L17.5843 5.04579C19.1024 6.69037 19.988 8.96748 19.988 11.3711C19.988 16.6843 15.8133 20.859 10.5 20.859Z" fill="white"/>
<path d="M11.2598 13.0159L12.1453 14.0279L11.3863 14.787L12.1453 15.6725L13.0308 14.787L13.7899 15.6725L12.5248 16.9376L13.4104 17.6966L14.6754 16.4315L15.0549 16.8111L15.814 16.052L12.0188 12.2568L11.2598 13.0159Z" fill="white"/>
</svg>
