<svg width="57" height="57" viewBox="0 0 57 57" fill="none" xmlns="http://www.w3.org/2000/svg">
<path d="M28.0234 56.8027C43.4874 56.8027 56.0234 44.2667 56.0234 28.8027C56.0234 13.3388 43.4874 0.802734 28.0234 0.802734C12.5595 0.802734 0.0234375 13.3388 0.0234375 28.8027C0.0234375 44.2667 12.5595 56.8027 28.0234 56.8027Z" fill="#333333"/>
<circle cx="31.5527" cy="23.7788" r="2.9563" transform="rotate(45 31.5527 23.7788)" stroke="white" stroke-width="2.74874"/>
<mask id="path-3-inside-1_1_7326" fill="white">
<path fill-rule="evenodd" clip-rule="evenodd" d="M27.0957 34.5303C31.3553 36.311 36.4522 35.468 39.919 32.0012C44.4997 27.4205 44.4997 19.9938 39.919 15.4132C35.3384 10.8325 27.9116 10.8325 23.331 15.4132C19.8641 18.8801 19.0211 23.9773 20.8021 28.237L10.7451 38.294L10.3837 44.9488L17.0385 44.5874L27.0957 34.5303Z"/>
</mask>
<path d="M27.0957 34.5303L28.1559 31.9942L26.4553 31.2833L25.152 32.5866L27.0957 34.5303ZM20.8021 28.237L22.7458 30.1806L24.0491 28.8772L23.3381 27.1766L20.8021 28.237ZM10.7451 38.294L8.80144 36.3503L8.05745 37.0943L8.0004 38.1449L10.7451 38.294ZM10.3837 44.9488L7.63904 44.7997L7.47288 47.8596L10.5328 47.6935L10.3837 44.9488ZM17.0385 44.5874L17.1876 47.3321L18.2382 47.2751L18.9822 46.5311L17.0385 44.5874ZM37.9754 30.0575C35.3241 32.7088 31.4225 33.3598 28.1559 31.9942L26.0355 37.0663C31.2881 39.2622 37.5804 38.2271 41.8627 33.9448L37.9754 30.0575ZM37.9754 17.3568C41.4826 20.864 41.4826 26.5503 37.9754 30.0575L41.8627 33.9448C47.5168 28.2907 47.5168 19.1236 41.8627 13.4695L37.9754 17.3568ZM25.2746 17.3568C28.7818 13.8496 34.4682 13.8496 37.9754 17.3568L41.8627 13.4695C36.2086 7.8154 27.0414 7.8154 21.3873 13.4695L25.2746 17.3568ZM23.3381 27.1766C21.9723 23.91 22.6232 20.0082 25.2746 17.3568L21.3873 13.4695C17.1049 17.7519 16.0699 24.0445 18.2661 29.2973L23.3381 27.1766ZM12.6887 40.2376L22.7458 30.1806L18.8585 26.2933L8.80144 36.3503L12.6887 40.2376ZM13.1284 45.0978L13.4898 38.443L8.0004 38.1449L7.63904 44.7997L13.1284 45.0978ZM16.8895 41.8427L10.2347 42.2041L10.5328 47.6935L17.1876 47.3321L16.8895 41.8427ZM25.152 32.5866L15.0949 42.6438L18.9822 46.5311L29.0393 36.4739L25.152 32.5866Z" fill="white" mask="url(#path-3-inside-1_1_7326)"/>
</svg>
