<svg width="57" height="57" viewBox="0 0 57 57" fill="none" xmlns="http://www.w3.org/2000/svg">
<path d="M28.4766 56.8027C43.9405 56.8027 56.4766 44.2667 56.4766 28.8027C56.4766 13.3388 43.9405 0.802734 28.4766 0.802734C13.0126 0.802734 0.476562 13.3388 0.476562 28.8027C0.476562 44.2667 13.0126 56.8027 28.4766 56.8027Z" fill="white"/>
<mask id="path-2-inside-1_4201_5870" fill="white">
<path fill-rule="evenodd" clip-rule="evenodd" d="M30.1465 33.4287C34.4061 35.2094 39.503 34.3664 42.9698 30.8996C47.5505 26.319 47.5505 18.8923 42.9698 14.3116C38.3891 9.73094 30.9624 9.73094 26.3818 14.3116C22.9149 17.7785 22.0719 22.8757 23.8529 27.1354L13.7959 37.1924L13.4345 43.8472L20.0893 43.4859L30.1465 33.4287Z"/>
</mask>
<path d="M30.1465 33.4287L31.2067 30.8926L29.5061 30.1817L28.2028 31.485L30.1465 33.4287ZM23.8529 27.1354L25.7965 29.079L27.0999 27.7757L26.3889 26.0751L23.8529 27.1354ZM13.7959 37.1924L11.8522 35.2488L11.1082 35.9927L11.0512 37.0434L13.7959 37.1924ZM13.4345 43.8472L10.6898 43.6982L10.5237 46.7581L13.5836 46.5919L13.4345 43.8472ZM20.0893 43.4859L20.2384 46.2306L21.289 46.1735L22.033 45.4295L20.0893 43.4859ZM41.0261 28.956C38.3748 31.6073 34.4732 32.2582 31.2067 30.8926L29.0863 35.9648C34.3389 38.1606 40.6312 37.1255 44.9135 32.8433L41.0261 28.956ZM41.0261 16.2552C44.5334 19.7625 44.5334 25.4488 41.0261 28.956L44.9135 32.8433C50.5676 27.1892 50.5676 18.0221 44.9135 12.3679L41.0261 16.2552ZM28.3254 16.2552C31.8326 12.748 37.5189 12.748 41.0261 16.2552L44.9135 12.3679C39.2593 6.71383 30.0922 6.71383 24.4381 12.3679L28.3254 16.2552ZM26.3889 26.0751C25.0231 22.8084 25.674 18.9066 28.3254 16.2552L24.4381 12.3679C20.1557 16.6503 19.1207 22.9429 21.3169 28.1957L26.3889 26.0751ZM15.7395 39.1361L25.7965 29.079L21.9092 25.1917L11.8522 35.2488L15.7395 39.1361ZM16.1792 43.9963L16.5406 37.3414L11.0512 37.0434L10.6898 43.6982L16.1792 43.9963ZM19.9403 40.7412L13.2855 41.1025L13.5836 46.5919L20.2384 46.2306L19.9403 40.7412ZM28.2028 31.485L18.1457 41.5422L22.033 45.4295L32.0901 35.3724L28.2028 31.485Z" fill="#333333" mask="url(#path-2-inside-1_4201_5870)"/>
<circle cx="34.6016" cy="22.6792" r="2.9563" transform="rotate(45 34.6016 22.6792)" stroke="#333333" stroke-width="2.74874"/>
</svg>
