<svg width="57" height="56" viewBox="0 0 57 56" fill="none" xmlns="http://www.w3.org/2000/svg">
<path d="M28.793 56C44.2569 56 56.793 43.464 56.793 28C56.793 12.536 44.2569 0 28.793 0C13.329 0 0.792969 12.536 0.792969 28C0.792969 43.464 13.329 56 28.793 56Z" fill="white"/>
<path fill-rule="evenodd" clip-rule="evenodd" d="M30.3439 41.4966C30.5539 41.4968 30.7589 41.4334 30.9322 41.3149C31.1055 41.1964 31.2389 41.0283 31.3149 40.8326L39.6949 19.2846C39.7925 19.0318 39.8145 18.756 39.7583 18.4909C39.7022 18.2257 39.5703 17.9826 39.3787 17.7909C39.187 17.5993 38.9439 17.4674 38.6787 17.4112C38.4135 17.3551 38.1378 17.3771 37.8849 17.4746L16.3329 25.8546C16.138 25.9308 15.9705 26.0638 15.8522 26.2365C15.734 26.4091 15.6705 26.6134 15.6699 26.8226C15.6696 27.0265 15.7293 27.2259 15.8415 27.396C15.9537 27.5662 16.1135 27.6996 16.3009 27.7796L25.4609 31.7056M19.2483 26.8669L37.3353 19.8342L30.3011 37.9217L26.9841 30.1825L19.2483 26.8669Z" fill="#59C9EB"/>
</svg>
