<svg width="57" height="57" viewBox="0 0 57 57" fill="none" xmlns="http://www.w3.org/2000/svg">
<path d="M28.5352 56.8047C43.9991 56.8047 56.5352 44.2687 56.5352 28.8047C56.5352 13.3407 43.9991 0.804688 28.5352 0.804688C13.0712 0.804688 0.535156 13.3407 0.535156 28.8047C0.535156 44.2687 13.0712 56.8047 28.5352 56.8047Z" fill="#333333"/>
<path fill-rule="evenodd" clip-rule="evenodd" d="M30.3439 42.4966C30.5539 42.4968 30.7589 42.4334 30.9322 42.3149C31.1055 42.1964 31.2389 42.0283 31.3149 41.8326L39.6949 20.2846C39.7925 20.0318 39.8145 19.756 39.7583 19.4909C39.7022 19.2257 39.5703 18.9826 39.3787 18.7909C39.187 18.5993 38.9439 18.4674 38.6787 18.4112C38.4135 18.3551 38.1378 18.3771 37.8849 18.4746L16.3329 26.8546C16.138 26.9308 15.9705 27.0638 15.8522 27.2365C15.734 27.4091 15.6705 27.6134 15.6699 27.8226C15.6696 28.0265 15.7293 28.2259 15.8415 28.396C15.9537 28.5662 16.1135 28.6996 16.3009 28.7796L25.4609 32.7056M19.2483 27.8669L37.3353 20.8342L30.3011 38.9217L26.9841 31.1825L19.2483 27.8669ZM30.3452 40.4966L30.3446 41.4544L30.3446 41.4556L30.3439 42.4966L30.3425 41.4576L30.3425 41.4548L30.3411 40.4966" fill="#43CDD1"/>
</svg>
