<svg width="57" height="57" viewBox="0 0 57 57" fill="none" xmlns="http://www.w3.org/2000/svg">
<g clip-path="url(#clip0_1_7005)">
<path d="M28.0586 56.8047C43.5226 56.8047 56.0586 44.2687 56.0586 28.8047C56.0586 13.3407 43.5226 0.804688 28.0586 0.804688C12.5946 0.804688 0.0585938 13.3407 0.0585938 28.8047C0.0585938 44.2687 12.5946 56.8047 28.0586 56.8047Z" fill="#333333"/>
<path d="M29.6074 41.2617L29.6094 42.0215V41.2607M29.6074 41.2617L29.6094 41.2607M29.6074 41.2617L29.6094 41.2607M29.6074 41.2617L29.6084 41.2598H29.6094V41.2607M29.6094 40.9268V41.2588H29.6074V40.9268H29.6094ZM37.6455 19.5625C37.6499 19.5608 37.6545 19.5606 37.6592 19.5615C37.6639 19.5625 37.6685 19.5649 37.6719 19.5684C37.6751 19.5717 37.6777 19.5755 37.6787 19.5801C37.6796 19.5842 37.679 19.5887 37.6777 19.5928L29.5938 40.3779L28.6689 38.2188C26.8104 33.8824 23.3549 30.427 19.0186 28.5684L16.8604 27.6426L37.6445 19.5615L37.6455 19.5625Z" stroke="white" stroke-width="2.75"/>
</g>
<defs>
<clipPath id="clip0_1_7005">
<rect width="56" height="56" fill="white" transform="translate(0.0585938 0.804688)"/>
</clipPath>
</defs>
</svg>
