<svg width="57" height="57" viewBox="0 0 57 57" fill="none" xmlns="http://www.w3.org/2000/svg">
<path d="M56.1992 28.2422C56.1992 12.7782 43.6632 0.242186 28.1992 0.242186C12.7352 0.242187 0.199217 12.7782 0.199218 28.2422C0.199218 43.7062 12.7352 56.2422 28.1992 56.2422C43.6632 56.2422 56.1992 43.7062 56.1992 28.2422Z" fill="white"/>
<g clip-path="url(#clip0_1_7009)">
<path d="M29.748 40.7461L29.75 41.5059V40.7451M29.748 40.7461L29.75 40.7451M29.748 40.7461L29.75 40.7451M29.748 40.7461L29.749 40.7441H29.75V40.7451M29.75 40.4111V40.7432H29.748V40.4111H29.75ZM37.7861 19.0469C37.7906 19.0452 37.7952 19.045 37.7998 19.0459C37.8045 19.0469 37.8091 19.0493 37.8125 19.0527C37.8158 19.0561 37.8183 19.0599 37.8193 19.0645C37.8202 19.0686 37.8196 19.0731 37.8184 19.0771L29.7344 39.8623L28.8096 37.7031C26.951 33.3668 23.4955 29.9113 19.1592 28.0527L17.001 27.127L37.7852 19.0459L37.7861 19.0469Z" stroke="#333333" stroke-width="2.75"/>
</g>
<defs>
<clipPath id="clip0_1_7009">
<rect width="25" height="26" fill="white" transform="translate(15.1914 15.8037)"/>
</clipPath>
</defs>
</svg>
