<svg width="21" height="15" viewBox="0 0 21 15" fill="none" xmlns="http://www.w3.org/2000/svg">
<path d="M7.2815 0.812453C8.1431 0.813456 8.96912 1.15617 9.57836 1.76541C10.1876 2.37465 10.5303 3.20067 10.5313 4.06227C10.5303 4.92386 10.1876 5.74988 9.57836 6.35912C8.96912 6.96836 8.1431 7.31108 7.2815 7.31208C6.41991 7.31108 5.5939 6.96836 4.98466 6.35912C4.37542 5.74988 4.03269 4.92386 4.03169 4.06227C4.03269 3.20067 4.37542 2.37465 4.98466 1.76541C5.5939 1.15617 6.41991 0.813456 7.2815 0.812453ZM7.2815 0C6.20412 0 5.17087 0.427987 4.40905 1.18981C3.64723 1.95163 3.21924 2.98489 3.21924 4.06227C3.21924 5.13965 3.64723 6.1729 4.40905 6.93472C5.17087 7.69654 6.20412 8.12453 7.2815 8.12453C8.35888 8.12453 9.39215 7.69654 10.154 6.93472C10.9158 6.1729 11.3438 5.13965 11.3438 4.06227C11.3438 2.98489 10.9158 1.95163 10.154 1.18981C9.39215 0.427987 8.35888 0 7.2815 0Z" fill="#858EAC"/>
<path d="M7.27634 11.1398C9.16882 11.1398 10.6827 11.5515 11.6533 12.3314C12.2453 12.7977 12.6567 13.4555 12.8167 14.1919H1.6937C1.85919 13.4542 2.27675 12.7972 2.87447 12.3341C3.85754 11.5531 5.38008 11.1425 7.27634 11.1425V11.1398ZM7.27634 10.3301C2.83493 10.3301 0.792969 12.4235 0.792969 15.006H13.7153C13.7153 12.4235 11.7188 10.3301 7.27634 10.3301Z" fill="#858EAC"/>
<path d="M18.0063 4.06227C18.0063 5.13965 17.5783 6.17291 16.8165 6.93473C16.0547 7.69655 15.0214 8.12454 13.944 8.12454C13.1218 8.12605 12.3186 7.87642 11.6421 7.40904C12.1853 7.03613 12.6295 6.5365 12.9362 5.95337C13.2429 5.37023 13.4029 4.72115 13.4024 4.06227C13.4029 3.40339 13.2429 2.75431 12.9362 2.17118C12.6295 1.58804 12.1853 1.08841 11.6421 0.715507C12.3186 0.248124 13.1218 -0.00150852 13.944 6.85856e-06C15.0214 6.85856e-06 16.0547 0.427994 16.8165 1.18982C17.5783 1.95164 18.0063 2.98489 18.0063 4.06227Z" fill="#858EAC"/>
<path d="M20.3783 15.0025H15.7744C15.7744 12.491 14.4745 10.364 11.6353 9.63709C12.3892 9.45241 13.1632 9.36253 13.9394 9.36952C18.3813 9.36952 20.3783 11.8914 20.3783 15.0025Z" fill="#858EAC"/>
</svg>
