<svg width="153" height="154" viewBox="0 0 153 154" fill="none" xmlns="http://www.w3.org/2000/svg">
<path d="M144.807 67.5188C143.513 53.4426 138.159 40.7169 130.008 30.3914C125.397 24.5508 119.891 19.4782 113.719 15.3635C110.067 12.9291 106.182 10.83 102.111 9.10554" stroke="#F99677" stroke-opacity="0.8" stroke-width="3"/>
<path d="M28.1505 21.1521C38.9627 11.6054 52.7963 5.2843 68.2596 3.86238C71.3333 3.57975 74.379 3.49917 77.3835 3.60973" stroke="#F99677" stroke-opacity="0.6" stroke-width="3"/>
<path opacity="0.2" d="M4.60334 80.4117C5.58389 91.0752 8.89422 100.964 13.9855 109.621C19.3002 118.658 26.5556 126.353 35.1273 132.187" stroke="#F99677" stroke-width="3"/>
<path d="M30.5059 48.0384C35.5369 39.7062 42.8186 32.9637 51.5125 28.5874C60.2062 24.2113 69.9588 22.3782 79.648 23.3003C89.3376 24.2225 98.5705 27.8623 106.283 33.8001C113.995 39.7379 119.874 47.7328 123.243 56.8644C126.612 65.9961 127.334 75.8937 125.326 85.4176C123.318 94.9414 118.661 103.704 111.892 110.698C105.123 117.693 96.5165 122.633 87.0634 124.952L86.4054 125.114L86.091 125.715L76.0198 145.006L65.262 126.09L64.9268 125.5L64.2627 125.362C52.7806 122.981 42.4487 116.768 34.9641 107.741C27.4795 98.7141 23.2863 87.41 23.0734 75.6855C22.898 65.9538 25.4749 56.3706 30.5059 48.0384Z" fill="white" stroke="#F99677" stroke-width="3"/>
<mask id="mask0_1_15251" style="mask-type:alpha" maskUnits="userSpaceOnUse" x="28" y="28" width="93" height="92">
<circle cx="74.8261" cy="74.0341" r="45.9354" fill="#C4C4C4"/>
</mask>
<g mask="url(#mask0_1_15251)">
<rect x="6.10352" y="65.2393" width="138.088" height="38.0936" fill="white" stroke="#F99677" stroke-width="3"/>
<path d="M75.1484 65.2871V102.211" stroke="#F99677" stroke-width="3"/>
<path d="M24.5723 78.0625L125.721 78.0625" stroke="#F99677" stroke-width="3"/>
<path d="M23.793 90.6113L124.942 90.6113" stroke="#F99677" stroke-width="3"/>
<circle cx="75.1475" cy="62.503" r="20.5518" fill="white" stroke="#F99677" stroke-width="3"/>
<path d="M66.9395 70.7095L83.3541 54.2949" stroke="#F99677" stroke-width="3" stroke-linecap="round"/>
<path d="M66.9409 54.2949L83.3555 70.7096" stroke="#F99677" stroke-width="3" stroke-linecap="round"/>
</g>
</svg>
