<svg width="57" height="56" viewBox="0 0 57 56" fill="none" xmlns="http://www.w3.org/2000/svg">
<path d="M56.793 28C56.793 12.536 44.2569 -1.89987e-06 28.793 -1.22392e-06C13.329 -5.47967e-07 0.792967 12.536 0.792968 28C0.792968 43.464 13.329 56 28.793 56C44.2569 56 56.793 43.464 56.793 28Z" fill="#333333"/>
<path d="M25.668 19.525V23.875H21.318V19.525H25.668ZM27.843 17.35H19.143V26.05H27.843V17.35ZM25.668 31.125V35.475H21.318V31.125H25.668ZM27.843 28.95H19.143V37.65H27.843V28.95ZM37.268 19.525V23.875H32.918V19.525H37.268ZM39.443 17.35H30.743V26.05H39.443V17.35ZM30.743 28.95H32.918V31.125H30.743V28.95ZM32.918 31.125H35.093V33.3H32.918V31.125ZM35.093 28.95H37.268V31.125H35.093V28.95ZM30.743 33.3H32.918V35.475H30.743V33.3ZM32.918 35.475H35.093V37.65H32.918V35.475ZM35.093 33.3H37.268V35.475H35.093V33.3ZM37.268 31.125H39.443V33.3H37.268V31.125ZM37.268 35.475H39.443V37.65H37.268V35.475ZM43.793 20.25H40.893V15.9H36.543V13H43.793V20.25ZM43.793 42V34.75H40.893V39.1H36.543V42H43.793ZM14.793 42H22.043V39.1H17.693V34.75H14.793V42ZM14.793 13V20.25H17.693V15.9H22.043V13H14.793Z" fill="white"/>
</svg>
