<svg width="57" height="56" viewBox="0 0 57 56" fill="none" xmlns="http://www.w3.org/2000/svg">
<rect x="0.792969" width="56" height="56" rx="28" fill="white"/>
<path d="M24.668 20.525V24.875H20.318V20.525H24.668ZM26.843 18.35H18.143V27.05H26.843V18.35ZM24.668 32.125V36.475H20.318V32.125H24.668ZM26.843 29.95H18.143V38.65H26.843V29.95ZM36.268 20.525V24.875H31.918V20.525H36.268ZM38.443 18.35H29.743V27.05H38.443V18.35ZM29.743 29.95H31.918V32.125H29.743V29.95ZM31.918 32.125H34.093V34.3H31.918V32.125ZM34.093 29.95H36.268V32.125H34.093V29.95ZM29.743 34.3H31.918V36.475H29.743V34.3ZM31.918 36.475H34.093V38.65H31.918V36.475ZM34.093 34.3H36.268V36.475H34.093V34.3ZM36.268 32.125H38.443V34.3H36.268V32.125ZM36.268 36.475H38.443V38.65H36.268V36.475ZM42.793 21.25H39.893V16.9H35.543V14H42.793V21.25ZM42.793 43V35.75H39.893V40.1H35.543V43H42.793ZM13.793 43H21.043V40.1H16.693V35.75H13.793V43ZM13.793 14V21.25H16.693V16.9H21.043V14H13.793Z" fill="black"/>
</svg>
