<svg width="57" height="57" viewBox="0 0 57 57" fill="none" xmlns="http://www.w3.org/2000/svg">
<g clip-path="url(#clip0_1_7017)">
<path d="M28.0586 56.8047C43.5226 56.8047 56.0586 44.2687 56.0586 28.8047C56.0586 13.3407 43.5226 0.804688 28.0586 0.804688C12.5946 0.804688 0.0585938 13.3407 0.0585938 28.8047C0.0585938 44.2687 12.5946 56.8047 28.0586 56.8047Z" fill="#333333"/>
<path d="M40.3805 22.084C40.3803 21.8613 40.3135 21.6438 40.1888 21.4594C40.064 21.275 39.887 21.1321 39.6805 21.049L29.0855 15.613H29.0655C28.7553 15.4496 28.4101 15.3643 28.0595 15.3643C27.709 15.3643 27.3637 15.4496 27.0535 15.613H27.0335L16.4385 21.05C16.2325 21.1328 16.0558 21.2752 15.9311 21.4589C15.8064 21.6426 15.7393 21.8594 15.7383 22.0814C15.7373 22.3035 15.8026 22.5208 15.9257 22.7056C16.0488 22.8904 16.2242 23.0343 16.4295 23.119V23.141L27.0385 28.564H27.0485C27.3592 28.728 27.7052 28.8137 28.0565 28.8137C28.4078 28.8137 28.7538 28.728 29.0645 28.564H29.0745L39.6865 23.145V23.123C39.8922 23.0382 40.0681 22.8941 40.1917 22.7091C40.3153 22.5241 40.381 22.3065 40.3805 22.084Z" fill="white"/>
<path d="M39.6805 27.7701L37.6075 26.7061C34.3535 28.3721 29.9125 30.6391 29.8615 30.6581C29.2946 30.9143 28.6796 31.0468 28.0575 31.0468C27.4354 31.0468 26.8204 30.9143 26.2535 30.6581C26.2045 30.6401 21.7675 28.3751 18.5125 26.7091L16.4385 27.7701C16.2325 27.8529 16.0558 27.9953 15.9311 28.179C15.8064 28.3627 15.7393 28.5795 15.7383 28.8015C15.7373 29.0236 15.8026 29.2409 15.9257 29.4257C16.0488 29.6105 16.2242 29.7544 16.4295 29.8391V29.8611L27.0385 35.2801H27.0485C27.3592 35.4441 27.7052 35.5298 28.0565 35.5298C28.4078 35.5298 28.7538 35.4441 29.0645 35.2801H29.0745L39.6865 29.8611V29.8391C39.8918 29.7544 40.0672 29.6105 40.1903 29.4257C40.3134 29.2409 40.3787 29.0236 40.3777 28.8015C40.3767 28.5795 40.3096 28.3627 40.1849 28.179C40.0602 27.9953 39.8835 27.8529 39.6775 27.7701H39.6805Z" fill="white"/>
<path d="M39.6805 34.4898L37.6075 33.4258C34.3535 35.0918 29.9125 37.3588 29.8615 37.3778C29.2946 37.634 28.6796 37.7665 28.0575 37.7665C27.4354 37.7665 26.8204 37.634 26.2535 37.3778C26.2045 37.3598 21.7675 35.0948 18.5125 33.4288L16.4385 34.4898C16.2325 34.5726 16.0558 34.715 15.9311 34.8987C15.8064 35.0825 15.7393 35.2992 15.7383 35.5213C15.7373 35.7433 15.8026 35.9606 15.9257 36.1454C16.0488 36.3302 16.2242 36.4741 16.4295 36.5588V36.5808L27.0385 41.9998H27.0485C27.3592 42.1638 27.7052 42.2495 28.0565 42.2495C28.4078 42.2495 28.7538 42.1638 29.0645 41.9998H29.0745L39.6865 36.5808V36.5588C39.8918 36.4741 40.0672 36.3302 40.1903 36.1454C40.3134 35.9606 40.3787 35.7433 40.3777 35.5213C40.3767 35.2992 40.3096 35.0825 40.1849 34.8987C40.0602 34.715 39.8835 34.5726 39.6775 34.4898H39.6805Z" fill="white"/>
</g>
<defs>
<clipPath id="clip0_1_7017">
<rect width="56" height="56" fill="white" transform="translate(0.0585938 0.804688)"/>
</clipPath>
</defs>
</svg>
