<svg width="57" height="57" viewBox="0 0 57 57" fill="none" xmlns="http://www.w3.org/2000/svg">
<path d="M56.1992 28.8047C56.1992 13.3407 43.6632 0.804686 28.1992 0.804686C12.7352 0.804687 0.199217 13.3407 0.199218 28.8047C0.199218 44.2687 12.7352 56.8047 28.1992 56.8047C43.6632 56.8047 56.1992 44.2687 56.1992 28.8047Z" fill="white"/>
<path d="M40.8649 23.083C40.8646 22.8603 40.7979 22.6429 40.6731 22.4585C40.5484 22.274 40.3714 22.1311 40.1649 22.048L29.5699 16.612H29.5499C29.2397 16.4486 28.8944 16.3633 28.5439 16.3633C28.1933 16.3633 27.848 16.4486 27.5379 16.612H27.5179L16.9229 22.049C16.7169 22.1318 16.5402 22.2742 16.4155 22.4579C16.2908 22.6417 16.2236 22.8584 16.2227 23.0805C16.2217 23.3025 16.2869 23.5198 16.4101 23.7046C16.5332 23.8894 16.7086 24.0333 16.9139 24.118V24.14L27.5229 29.563H27.5329C27.8436 29.727 28.1896 29.8127 28.5409 29.8127C28.8922 29.8127 29.2382 29.727 29.5489 29.563H29.5589L40.1709 24.144V24.122C40.3766 24.0372 40.5525 23.8932 40.6761 23.7081C40.7996 23.5231 40.8654 23.3055 40.8649 23.083Z" fill="#333333"/>
<path d="M40.1649 28.7691L38.0919 27.7051C34.8379 29.3711 30.3969 31.6381 30.3459 31.6571C29.779 31.9133 29.164 32.0458 28.5419 32.0458C27.9198 32.0458 27.3048 31.9133 26.7379 31.6571C26.6889 31.6391 22.2519 29.3741 18.9969 27.7081L16.9229 28.7691C16.7169 28.8519 16.5402 28.9943 16.4155 29.178C16.2908 29.3618 16.2236 29.5785 16.2227 29.8006C16.2217 30.0226 16.2869 30.2399 16.4101 30.4247C16.5332 30.6095 16.7086 30.7534 16.9139 30.8381V30.8601L27.5229 36.2791H27.5329C27.8436 36.4431 28.1896 36.5288 28.5409 36.5288C28.8922 36.5288 29.2382 36.4431 29.5489 36.2791H29.5589L40.1709 30.8601V30.8381C40.3762 30.7534 40.5516 30.6095 40.6747 30.4247C40.7978 30.2399 40.8631 30.0226 40.8621 29.8006C40.8611 29.5785 40.794 29.3618 40.6693 29.178C40.5445 28.9943 40.3679 28.8519 40.1619 28.7691H40.1649Z" fill="#333333"/>
<path d="M40.1649 35.4898L38.0919 34.4258C34.8379 36.0918 30.3969 38.3588 30.3459 38.3778C29.779 38.634 29.164 38.7665 28.5419 38.7665C27.9198 38.7665 27.3048 38.634 26.7379 38.3778C26.6889 38.3598 22.2519 36.0948 18.9969 34.4288L16.9229 35.4898C16.7169 35.5726 16.5402 35.715 16.4155 35.8987C16.2908 36.0825 16.2236 36.2992 16.2227 36.5213C16.2217 36.7433 16.2869 36.9606 16.4101 37.1454C16.5332 37.3302 16.7086 37.4741 16.9139 37.5588V37.5808L27.5229 42.9998H27.5329C27.8436 43.1638 28.1896 43.2495 28.5409 43.2495C28.8922 43.2495 29.2382 43.1638 29.5489 42.9998H29.5589L40.1709 37.5808V37.5588C40.3762 37.4741 40.5516 37.3302 40.6747 37.1454C40.7978 36.9606 40.8631 36.7433 40.8621 36.5213C40.8611 36.2992 40.794 36.0825 40.6693 35.8987C40.5445 35.715 40.3679 35.5726 40.1619 35.4898H40.1649Z" fill="#333333"/>
</svg>
